<svg xmlns="http://www.w3.org/2000/svg" viewBox="0 0 2286 2290"><defs><style>.cls-1{fill:#1d1d1b;}.cls-2,.cls-3{fill:#fff;}.cls-3{font-size:495.06px;font-family:MarketPro-Bold, Market Pro;font-weight:700;}.cls-4{letter-spacing:-0.02em;}.cls-5{letter-spacing:0em;}.cls-6{letter-spacing:0.02em;}.cls-7{letter-spacing:0em;}.cls-8{letter-spacing:-0.01em;}</style></defs><g id="Objects"><rect class="cls-1" width="2286" height="2290" rx="547.45"/><path class="cls-2" d="M1408.67,1511.68l-19.81-55.37,15.88-13.63a1.32,1.32,0,0,0-.08-2.24l-18.05-11.71a2.66,2.66,0,0,0-3,.26l-3.47,3-9.61-26.86,14.11-12.1a1.32,1.32,0,0,0-.08-2.24l-18-11.71a2.66,2.66,0,0,0-3,.26l-1.7,1.45-9.73-27.19,50.81-43.61c27.38-23.49,37.3-49.34,29.95-54.11s-40.29,6.17-67.66,29.66l-50.81,43.61-37.47-3.4,1.7-1.46a1.32,1.32,0,0,0-.08-2.24l-18-11.7a2.65,2.65,0,0,0-3,.25l-14.11,12.11-37-3.35,3.47-3a1.33,1.33,0,0,0-.08-2.24l-18.06-11.71a2.64,2.64,0,0,0-3,.26l-15.88,13.63-76.28-6.92a9.53,9.53,0,0,0-6.95,2.1l-12,10.31c-1.23,1.06-.8,2.63.84,3.06l96.14,25.4-1.77,1.52a3.65,3.65,0,0,0-1.1,1.48.89.89,0,0,0,.25,1.11c.69.45,2.26-.07,3.33-1l2.62-2.25,33.82,8.93,11.09,7.19-2.67,2.29a3.64,3.64,0,0,0-1.1,1.49.89.89,0,0,0,.25,1.11c.69.44,2.26-.07,3.33-1l2.67-2.29,24.37,15.8-20.11,17.26c-13.88,11.91-25.2,22.59-34.43,32.08h0l-74-4.39a4.43,4.43,0,0,0-3.11,1l-7.37,6.32a2.24,2.24,0,0,0,.7,4l28.29,11.27-1.67,1.42a3.7,3.7,0,0,0-1.09,1.49.89.89,0,0,0,.25,1.11c.68.44,2.25-.07,3.32-1l2.16-1.85,19.82,7.89-1.78,1.53a3.58,3.58,0,0,0-1.1,1.49.9.9,0,0,0,.25,1.11c.68.44,2.26-.07,3.32-1l2.28-2,4,1.61c-8.37,11.66-12.09,19.84-13.74,24.82l-13.58,11.65a9.33,9.33,0,0,0-2.83,3.85c-.41,1.22-.24,2.29.64,2.86,1.77,1.15,5.83-.18,8.6-2.55l13.58-11.66c6.38-1.91,16.72-5.8,31-13.61l2.7,2.76-2.28,2c-1.07.92-1.53,2.15-.85,2.59a1.88,1.88,0,0,0,1.51,0,5.16,5.16,0,0,0,1.82-1l1.78-1.54,13.24,13.54-2.16,1.85c-1.06.92-1.53,2.15-.84,2.6a1.9,1.9,0,0,0,1.5,0,5.19,5.19,0,0,0,1.82-1l1.67-1.43,18.9,19.33a4.24,4.24,0,0,0,5.41,0l7.37-6.33a2.33,2.33,0,0,0,.88-2.43l-16.14-54h0c11.32-8.13,23.91-18,37.79-29.89l20.12-17.26,24.37,15.8-2.67,2.29c-1.07.92-1.53,2.15-.85,2.59a1.84,1.84,0,0,0,1.51,0,5.16,5.16,0,0,0,1.82-1l2.67-2.3,11.09,7.19,16.58,23.74-2.62,2.25c-1.07.92-1.54,2.15-.85,2.59a1.9,1.9,0,0,0,1.5,0,5.16,5.16,0,0,0,1.83-1l1.77-1.52,47.11,67.47c.81,1.15,2.95,1.25,4.18.19l12-10.31A5,5,0,0,0,1408.67,1511.68Z"/><path class="cls-2" d="M1840.51,660c40.3-94,79.59-244.53-42.81-301.49-86.88-37.65-206-5.45-291,25.75-302.7,116-597.06,362.36-807.23,585.94-147.23,159.43-281,332.33-365.14,525.34-8.31,19.73-16.37,40.71-23.12,60.92-24,73.37-43.23,167.16-5.46,238.56,29.66,57.36,94.78,84.19,163.47,82.78,22.72,0,45.37-2.79,67.63-6.79,73.14-13.81,142.36-42.27,207.27-74.32,131.61-66.32,249.71-150.6,358.77-242.85a4.59,4.59,0,0,0,.21-7,6.14,6.14,0,0,0-7.49-.43c-58.6,41.09-118.41,80.59-180.09,117.29-115.9,68.85-353.7,195.42-492,158-44.61-12.77-66.31-44.74-72.6-84.37-13-86.81,34.19-196.25,74.87-275.64,20.94-40.49,44.46-80.1,69.31-118.85,131.52-202,299.13-384.75,483.83-550.44C1122.34,665.74,1277.53,546.81,1453,456.87c47.3-23.95,96.87-45.49,148-61.31,42.36-12.95,85.4-22,129.32-20.78,92.92,3.71,128,61.9,129.73,138.73.82,49-10,97.5-24.34,145.1-.81,2.82,3.68,3.9,4.8,1.35Z"/><text class="cls-3" transform="translate(38 1202.1)"><tspan xml:space="preserve">Air  </tspan><tspan class="cls-4" x="752.74" y="0">C</tspan><tspan class="cls-5" x="976.33" y="0">h</tspan><tspan class="cls-6" x="1185.67" y="0">a</tspan><tspan class="cls-4" x="1427.16" y="0">r</tspan><tspan class="cls-7" x="1565.67" y="0">te</tspan><tspan class="cls-8" x="1876.28" y="0">r</tspan><tspan class="cls-7" x="2019.87" y="0">s</tspan></text></g></svg>